<?xml version="1.0" encoding="UTF-8"?>
<svg id="Asterisk--Streamline-Sharp-Material" xmlns="http://www.w3.org/2000/svg" xmlns:xlink="http://www.w3.org/1999/xlink" viewBox="0 0 24 24">
  <defs>
    <style>
      .cls-1 {
        fill: url(#linear-gradient);
      }
    </style>
    <linearGradient id="linear-gradient" x1="1.78" y1="12.13" x2="22.22" y2="12.13" gradientUnits="userSpaceOnUse">
      <stop offset="0" stop-color="#8b5cf6"/>
      <stop offset="1" stop-color="#d946ef"/>
    </linearGradient>
  </defs>
  <path class="cls-1" d="M2.67,13.73h2.13v.82H1.78v-5.1h.89v4.28ZM5.31,9.9c0-.29.23-.51.52-.51s.51.22.51.51-.23.52-.51.52-.52-.23-.52-.52ZM5.41,11.1h.85v3.45h-.85v-3.45ZM7.29,11.1v-.42c0-.93.5-1.33,1.24-1.33.13,0,.29,0,.44.03v.73h-.3c-.43,0-.54.22-.54.56v.42h.82v.71h-.82v2.73h-.84v-2.73h-.5v-.71h.5ZM9.2,12.83c0-1.08.7-1.83,1.72-1.83s1.69.69,1.69,1.76v.26h-2.6c.06.61.38.92.95.92.47,0,.77-.18.87-.51h.79c-.15.75-.77,1.21-1.67,1.21-1.03,0-1.74-.75-1.74-1.81h-.01ZM10.03,12.48h1.73c0-.47-.33-.79-.84-.79s-.81.27-.89.79ZM20.42,9.36c1.03,0,1.69.57,1.72,1.49h-.89c-.02-.44-.33-.7-.84-.7-.55,0-.91.26-.91.69,0,.36.2.57.62.66l.8.17c.87.19,1.3.64,1.3,1.4,0,.95-.74,1.56-1.86,1.56s-1.8-.58-1.82-1.49h.89c0,.43.36.69.93.69s.97-.26.97-.68c0-.34-.17-.54-.59-.64l-.81-.18c-.87-.19-1.32-.68-1.32-1.46,0-.89.74-1.51,1.81-1.51ZM18.2,10.83c.47-.74.57-1.21.32-1.47-.26-.26-.77-.14-1.56.38-.39-.23-.85-.37-1.34-.37-1.45,0-2.62,1.17-2.62,2.62,0,.49.13.95.37,1.34-.52.79-.65,1.3-.38,1.56.09.09.2.13.35.13.27,0,.64-.15,1.12-.45.07-.04.14-.09.21-.14.29.11.62.18.95.18,1.45,0,2.62-1.17,2.62-2.62,0-.34-.06-.66-.18-.95.05-.07.1-.14.14-.21h0ZM18.17,9.71c.02.12-.1.42-.37.84-.12-.18-.27-.35-.43-.5.47-.29.72-.35.8-.34h0ZM15.61,9.85c.82,0,1.53.46,1.89,1.13-.32.44-.77.97-1.35,1.55-.58.58-1.11,1.02-1.55,1.35-.67-.36-1.13-1.07-1.13-1.89,0-1.18.96-2.14,2.14-2.14h0ZM13.33,14.55c0-.08.05-.33.34-.8.15.16.31.31.5.43-.42.27-.72.38-.84.37ZM17.75,11.99c0,1.18-.96,2.14-2.14,2.14-.16,0-.32-.02-.47-.05.44-.34.9-.75,1.35-1.21.45-.45.87-.92,1.21-1.35.03.15.05.31.05.47h0Z"/>
</svg>