<?xml version="1.0" encoding="utf-8"?>
<!-- Generator: Adobe Illustrator 16.0.0, SVG Export Plug-In . SVG Version: 6.00 Build 0)  -->
<svg version="1.2" baseProfile="tiny" id="Layer_1" xmlns="http://www.w3.org/2000/svg" xmlns:xlink="http://www.w3.org/1999/xlink"
	 x="0px" y="0px" width="1000px" height="1000px" viewBox="0 0 1000 1000" xml:space="preserve">
<g>
	<path fill="#A41F35" d="M348.392,407.011c0-12.109-2.854-17.807-12.116-17.807h-16.381c-2.134,0-2.853-0.711-2.853-3.208v-8.188
		c0-2.142,0.718-2.85,3.565-2.85c3.559,0,20.657,1.069,54.844,1.069c29.927,0,47.027-1.069,51.304-1.069
		c2.141,0,2.844,0.708,2.844,2.486v8.905c0,2.142-0.703,2.854-2.844,2.854h-14.964c-10.683,0-17.1,6.409-17.453,13.89
		c-0.358,4.279-1.07,25.644-1.07,46.309v44.164c0,17.811,0.352,43.103,1.07,54.491c1.064,16.388,3.919,32.774,12.464,44.176
		c12.109,16.382,31.343,22.088,48.441,22.088c16.385,0,36.33-6.423,47.728-17.109c13.531-13.532,20.653-34.19,20.653-60.19v-64.118
		c0-28.498-2.846-59.84-3.911-68.035c-1.066-9.255-6.773-15.665-14.599-15.665h-12.823c-2.141,0-2.854-1.066-2.854-2.496v-8.899
		c0-2.142,0.713-2.85,2.854-2.85c3.559,0,19.94,1.069,43.451,1.069c22.081,0,33.482-1.069,36.321-1.069
		c3.213,0,3.576,1.069,3.576,2.85v8.188c0,2.141-0.363,3.208-2.145,3.208h-12.819c-12.817,0-14.247,9.975-14.957,13.89
		c-0.722,4.279-0.722,54.141-0.722,58.77c0,4.988-0.707,66.967-2.131,81.215c-2.139,29.213-10.68,51.294-29.927,68.396
		c-14.946,13.52-37.746,22.074-64.821,22.074c-17.098,0-37.752-2.848-51.285-8.555c-20.666-8.54-34.909-24.928-42.037-47.725
		c-4.977-15.671-6.406-39.182-6.406-85.837V407.011z"/>
	<path fill="#A41F35" d="M585.626,548.774c1.43,0,2.133,0.715,2.133,2.846c0.715,11.401,3.561,24.935,13.539,40.613
		c10.687,17.097,29.205,25.637,47.017,25.637c19.233,0,46.3-12.103,46.3-41.673c0-32.767-14.957-43.453-52.717-57.702
		c-11.395-4.276-34.912-14.241-51.994-29.91c-12.104-11.405-17.812-29.216-17.812-50.942c0-19.945,7.826-36.326,24.929-49.865
		c14.242-12.104,29.92-17.096,50.584-17.096c23.499,0,37.753,5.698,44.87,8.551c3.569,1.424,5.708,0.719,7.476-1.069l4.641-4.632
		c1.418-1.431,2.848-2.142,4.979-2.142c2.145,0,2.854,2.142,2.854,5.7c0,5.701,5.7,55.571,5.7,59.129
		c0,1.423-0.715,2.134-2.131,2.493l-5.709,1.785c-1.416,0.35-2.847,0-3.562-2.143c-3.556-9.97-9.256-24.212-22.088-37.756
		c-9.256-9.974-20.644-14.963-37.031-14.963c-28.496,0-39.897,22.805-39.897,35.978c0,12.115,1.423,22.799,9.97,32.057
		c9.264,9.262,29.206,17.811,43.455,22.088c20.656,6.415,37.759,13.532,51.293,27.784c11.395,12.106,17.81,27.069,17.81,50.932
		c0,43.448-28.496,79.075-75.513,79.075c-29.205,0-46.307-6.41-60.549-17.095c-4.27-2.848-6.414-4.278-8.547-4.278
		c-2.14,0-3.569,2.847-5.708,6.416c-2.118,3.556-3.549,4.271-6.408,4.271c-2.848,0-4.277-2.131-4.277-5.693
		c0.722-4.277,5.707-61.98,6.415-66.257c0.358-2.138,0.722-2.854,2.152-2.854L585.626,548.774z"/>
	<path fill="#A41F35" d="M973.874,570.146c1.073,1.073,1.423,2.14,0.708,3.563c-21.371,30.628-55.57,59.841-106.134,59.841
		c-45.605,0-71.242-13.534-93.33-33.477c-26.365-23.518-38.468-64.832-38.468-96.176c0-34.907,11.395-68.391,36.337-95.459
		c19.228-20.66,49.855-37.752,92.6-37.752c32.775,0,59.133,9.975,71.944,17.092c5,2.851,6.416,2.851,7.124,0l2.854-9.26
		c0.707-2.135,1.429-2.135,5.701-2.135c4.277,0,4.992,0.705,4.992,5.694c0,6.416,7.117,63.402,8.547,74.092
		c0.352,2.136,0,3.204-1.43,3.559l-6.768,2.132c-1.781,0.711-2.846-0.713-3.912-3.555c-4.277-12.826-12.833-30.627-27.781-46.302
		c-15.68-14.964-34.206-26.361-61.986-26.361c-56.987,0-80.484,51.292-80.484,102.581c0,22.081,6.395,64.112,32.76,92.608
		c23.505,24.936,44.162,27.783,61.265,27.783c39.183,0,70.176-19.593,85.133-41.317c1.774-2.495,3.204-3.561,4.264-2.495
		L973.874,570.146z"/>
	<path fill="#1D1D1B" d="M267.461,414.122l-0.397-7.175c-0.486-6.642-1.279-13.604-2.406-20.718l-0.808-4.824
		c-0.457-2.57-0.959-5.137-1.531-7.738l-0.474-2.169l-2.127,0.624c-0.075,0.027-3.508,0.995-9.298,1.96l-14.045,1.595
		c-2.79,0.189-5.754,0.307-8.868,0.307c-8.188,0.007-16.188-0.735-23.89-2.142l-4.934-0.955c-0.088-0.027-0.187-0.04-0.253-0.053
		c-0.105-0.031-4.072-0.857-10.087-2.911l-6.543-2.446c-6.547-2.604-14.305-6.382-22.01-11.529l-6.432-4.689
		c-1.202-0.948-2.396-1.923-3.57-2.965l-1.424-1.228l-1.383,1.299c-0.033,0.033-1.194,1.109-3.383,2.843l-6.564,4.726
		c-5.374,3.559-12.842,7.835-22.142,11.601l-6.555,2.445c-3.157,1.069-6.48,2.099-9.984,2.998c-0.087,0.014-0.185,0.027-0.263,0.055
		l-5.69,1.245c-6.689,1.228-13.894,1.892-21.521,1.892c-3.738,0-7.299-0.138-10.646-0.388L46.17,374.16
		c-5.563-0.897-8.997-1.754-9.064-1.771l-2.087-0.53l-0.469,2.109c-0.456,2.071-0.83,4.142-1.215,6.193l-1.072,6.28
		c-1.09,6.973-1.859,13.791-2.314,20.297l-0.416,7.219c-0.138,3.518-0.219,6.924-0.236,10.196l0.051,7.014
		c0.401,19.682,2.742,33.255,2.927,34.349c0.217,1.67,4.382,33.364,20.132,71.586c14.812,35.856,43.15,84.977,94.172,115.923
		l2.22,1.343l2.203-1.343c50.956-31.08,79.154-80.275,93.854-116.179c15.67-38.246,19.76-69.964,19.954-71.628
		c0.199-1.099,2.465-14.514,2.846-33.999l0.048-6.961C267.684,420.997,267.614,417.62,267.461,414.122 M241.582,458.035h-0.059
		c-4.523,0.014-11.992,0.825-16.658,2.182l-3.562,1.049c-3.005,0.896-6.148,1.818-9.272,2.65l0.54,2.01l-0.54-2.01
		c-7.31,1.971-12.532,2.898-16.441,2.912h-0.091c-6.756,0-17.264-0.871-29.07-5.009c-3.19-1.114-7.04-2.355-11.199-3.06
		c-4.213-0.711-7.88-0.803-11.769-0.283c-4.891,0.633-9.381,2.078-13.135,3.396c-11.86,4.174-22.388,5.058-29.131,5.074h-0.034
		c-5.795,0-13.851-2.094-20.975-4.131l-0.566,2.01l0.566-2.01c-2.101-0.587-4.166-1.197-6.149-1.777l-2.148-0.628
		c-4.234-1.234-11.246-2.141-16.371-2.141h-0.084c-6.962,0.007-13.166,1.622-19.329,4.831c-0.171-1.049-0.388-2.571-0.651-4.504
		c6.109-3.345,12.96-5.16,19.98-5.174h0.07c4.736,0,11.405,0.87,15.217,1.987l8.305,2.404l0.58-1.99l-0.573,1.99
		c7.805,2.221,15.88,4.285,22.128,4.285h0.034c7.081-0.013,18.121-0.949,30.5-5.313c3.559-1.258,7.792-2.611,12.248-3.179
		l4.082-0.304h0.256l6.288,0.56c3.888,0.663,7.647,1.887,10.486,2.888c12.373,4.304,23.363,5.214,30.443,5.214h0.091
		c4.264,0,9.651-0.927,17.514-3.039c3.278-0.876,6.581-1.853,9.73-2.793l3.206-0.938c3.754-1.1,10.702-2.01,15.483-2.01h0.034
		c7.033,0,13.928,1.795,20.063,5.146c-0.243,1.859-0.441,3.33-0.599,4.365C254.891,459.629,248.521,458.035,241.582,458.035
		 M33.5,431.477l70.048,5.28c-1.545,3.819-2.604,7.896-3.147,12.157c-5.673-0.221-13.155-2.119-19.885-4.027l-8.295-2.417
		c-4.21-1.224-11.239-2.141-16.38-2.141h-0.078c-7.424,0-15.085,1.858-21.615,4.985C33.844,441.199,33.602,436.56,33.5,431.477
		 M148.702,440.197l-0.007,0.311l-0.007-0.311c-1.622,0.014-3.275,0.132-4.898,0.338c-4.884,0.62-9.394,2.065-13.138,3.393
		c-10.164,3.583-19.366,4.737-26.038,5c3.033-21.893,21.504-38.183,43.875-38.217h0.047c22.083,0,40.81,16.512,43.909,38.084
		c-6.644-0.273-15.689-1.426-25.676-4.924c-3-1.049-6.987-2.334-11.193-3.06l-0.034,0.09l0.014-0.09
		C153.171,440.402,150.921,440.197,148.702,440.197 M241.557,449.031h-0.047c-4.547,0-12.016,0.823-16.651,2.183l-3.21,0.948
		c-3.104,0.903-6.376,1.878-9.624,2.755l0.547,2.01l-0.547-2.01c-4.649,1.245-11.405,2.894-16.447,2.894h-0.078
		c-6.756,0-17.251-0.87-29.07-5.002c-3.005-1.036-7.002-2.333-11.213-3.066c-2.38-0.401-4.628-0.593-6.865-0.593
		c-1.645,0-3.248,0.11-4.897,0.323c-4.864,0.621-9.367,2.058-13.135,3.394c-11.84,4.167-22.381,5.063-29.131,5.077h-0.027
		c-5.749,0-13.824-2.088-20.982-4.126l-8.297-2.408c-4.2-1.224-11.226-2.149-16.377-2.149h-0.084
		c-7.145,0.014-14.127,1.768-20.469,4.953c-0.151-1.374-0.296-2.854-0.441-4.47c6.263-3.316,13.883-5.255,21.261-5.255h0.064
		c4.732,0,11.398,0.854,15.226,1.966l8.315,2.419l0.573-1.997l-0.566,1.997c7.788,2.223,15.864,4.291,22.114,4.291h0.041
		c7.077-0.013,18.114-0.968,30.493-5.319c3.545-1.258,7.765-2.604,12.242-3.178l4.395-0.296l6.25,0.535
		c3.897,0.679,7.641,1.903,10.475,2.888c12.352,4.334,23.35,5.238,30.433,5.238h0.088c4.277,0,9.676-0.934,17.512-3.039
		c3.26-0.87,6.542-1.844,9.665-2.773l3.289-0.958c3.778-1.107,10.72-2.01,15.479-2.024h0.038c7.107,0,14.556,1.859,20.668,5.022
		c-0.146,1.705-0.297,3.265-0.443,4.703C255.76,450.778,248.72,449.031,241.557,449.031 M241.845,440.078
		c-4.516,0.014-11.983,0.837-16.625,2.184l-3.296,0.975c-3.097,0.903-6.341,1.886-9.576,2.742
		c-4.419,1.182-10.727,2.703-15.682,2.848c-0.557-4.196-1.637-8.225-3.192-12.023l70.038-5.262
		c-0.105,4.861-0.311,9.33-0.601,13.318C256.512,441.879,249.096,440.224,241.845,440.078 M263.56,424.806l-71.174,9.525
		c-0.561-1.146-1.162-2.28-1.798-3.37l72.747-15.925C263.465,418.399,263.553,421.688,263.56,424.806 M260.736,388.044
		c1.063,6.895,1.781,13.63,2.216,20.057l-73.725,20.653c-1.285-1.977-2.701-3.846-4.25-5.617L260.736,388.044z M242.234,379.381
		c7.744-0.779,13.532-1.997,16.475-2.702c0.27,1.33,0.492,2.634,0.755,3.96l-76.15,40.745c-0.763-0.803-1.556-1.594-2.404-2.333
		L242.234,379.381z M203.733,378.11c7.676,1.349,15.627,2.038,23.774,2.024c0.988,0,1.905-0.027,2.851-0.054l-51.195,37.489
		c-2.075-1.683-4.277-3.204-6.605-4.537L203.733,378.11z M186.243,373.64c4.384,1.508,7.826,2.425,9.704,2.881l-26.182,35.003
		c-1.319-0.661-2.686-1.241-4.089-1.774L186.243,373.64z M159.183,360.529c7.35,4.766,14.626,8.277,20.842,10.784l-17.21,37.436
		c-3.184-0.981-6.493-1.676-9.894-1.99L159.183,360.529z M148.432,352.632c1.528,1.299,3.083,2.51,4.652,3.677l-2.787,50.331
		c-0.587-0.019-1.154-0.086-1.761-0.086h-0.054c-0.611,0-1.205,0.068-1.812,0.086l-2.783-50.408
		C145.892,354.74,147.437,353.489,148.432,352.632 M137.641,360.529l6.268,46.247c-3.468,0.324-6.822,1.042-10.046,2.051
		l-17.237-37.5C125.255,367.852,132.301,363.963,137.641,360.529 M110.437,373.667l20.566,36.124
		c-1.379,0.533-2.749,1.127-4.074,1.791l-26.156-34.949C104.159,375.722,107.384,374.733,110.437,373.667 M70.879,380.329
		c7.883,0,15.338-0.671,22.273-1.963l31,34.72c-2.352,1.37-4.561,2.912-6.643,4.639l-51.174-37.46
		C67.826,380.303,69.32,380.343,70.879,380.329 M38.169,376.909c2.928,0.634,8.706,1.754,16.171,2.55l61.416,39.723
		c-0.837,0.752-1.596,1.545-2.355,2.348L37.43,380.875C37.68,379.554,37.899,378.234,38.169,376.909 M36.186,388.253l75.62,35.031
		c-1.437,1.666-2.779,3.419-3.987,5.272l-73.781-20.677C34.465,401.577,35.157,395.009,36.186,388.253 M33.673,414.871l72.8,15.928
		c-0.637,1.121-1.231,2.253-1.791,3.428l-71.252-9.513C33.443,421.571,33.535,418.241,33.673,414.871 M240.962,535.388
		c-14.478,35.312-42.189,83.649-92.169,114.109c-50.058-30.317-77.914-78.609-92.49-113.878
		c-13.401-32.502-18.313-60.101-19.551-68.196c5.984-3.364,11.952-4.983,18.695-5.004h0.07c4.703,0,11.371,0.871,15.21,1.978
		l2.122,0.62c2.017,0.601,4.082,1.194,6.196,1.798c7.395,2.125,15.808,4.28,22.115,4.28h0.034c7.081-0.014,18.107-0.93,30.507-5.309
		c3.538-1.231,7.758-2.584,12.261-3.187l4.092-0.291h0.226l6.315,0.567c3.835,0.65,7.447,1.81,10.473,2.873
		c12.354,4.325,23.349,5.233,30.443,5.233h0.091c4.277-0.007,9.836-0.976,17.514-3.042c3.132-0.84,6.321-1.788,9.36-2.686
		l3.562-1.053c3.795-1.088,10.736-2.003,15.497-2.017h0.045c6.717,0,12.874,1.64,18.786,4.837
		C259.174,474.958,254.364,502.688,240.962,535.388"/>
	<path fill="#1D1D1B" d="M209.398,505.682c2.831-1.747,5.843-5.118,4.338-10.279c-0.027-0.064-3.593-6.951-1.844-12.444l0.586-1.857
		l-1.939,0.222c-0.291,0.027-2.925,0.482-5.951,3.875c-2.981-4.85-7.812-7.843-8.116-8.007l-4.811-2.848l3.125,4.639
		c0.56,0.833,2.024,3.596,1.402,5.354c-0.336,0.975-0.764,1.72-1.263,2.404c-3.192-3.234-8.063-4.561-8.269-4.61l-2.509-0.662
		l1.029,2.375c1.402,3.221,0.291,5.464-0.978,8.068c-0.947,1.929-2.01,4.099-1.997,6.776c0,3.472,1.713,5.702,3.375,6.953
		c-1.207,1.076-1.977,2.63-1.977,4.381c0.017,2.214,1.272,4.143,3.104,5.141c0.277,2.969,1.583,4.858,3.262,5.763l1.768,38.353
		c-2.301,0.547-4.041,2.53-4.041,4.992c0,2.639,1.99,4.73,4.509,5.12l0.739,16.003c0,2.496,2.024,4.52,4.521,4.52
		c2.5,0,4.517-2.023,4.517-4.465l0.745-16.03c2.633-0.29,4.725-2.455,4.712-5.154c0-2.549-1.846-4.573-4.25-5.06l1.771-38.318
		c0.53-0.257,1.049-0.526,1.463-0.946c1.162-1.159,1.768-2.846,1.9-4.965c0.428-0.256,0.883-0.479,1.245-0.837
		c1.112-1.105,1.727-2.603,1.72-4.154C211.285,508.271,210.56,506.756,209.398,505.682 M206.078,487.327
		c1.068-1.316,2.076-2.148,2.886-2.667c-0.63,5.826,2.396,11.614,2.452,11.693c1.438,4.977-3.491,7.388-4.691,7.897
		c-0.428-0.11-0.871-0.171-1.354-0.171h-2.557c1.866-2.418,4.18-6.427,4.146-11.398C206.96,490.565,206.078,487.327,206.078,487.327
		 M198.558,485.179c0.361-0.997,0.368-2.075,0.188-3.09c2.598,2.363,5.664,6.109,5.705,10.605c0.037,5.583-3.521,9.88-4.953,11.385
		h-0.903c-1.121-1.535-3.289-5.016-0.988-8.886c0.455-0.779,2.541-4,2.804-4.615c0.353-0.752,0.311-1.45,0.311-1.45
		c-0.352,0.574-0.959,1.251-0.959,1.251c-0.599,0.647-2.654,2.776-3.302,3.559c-3.386,4.116-1.112,8.605-0.216,10.14l-2.94,0.013
		c-5.05-6.783,0.35-12.102,0.677-12.426c0.378-0.428,0.746-0.837,1.09-1.211C196.486,488.923,197.707,487.604,198.558,485.179
		 M184.708,498.688c0-2.09,0.856-3.833,1.748-5.663c1.08-2.197,2.273-4.628,1.784-7.668c1.545,0.64,3.556,1.747,5.057,3.316
		c-0.027,0.027-0.058,0.054-0.085,0.066c-0.356,0.402-0.739,0.817-1.049,1.178c-0.083,0.068-6.466,6.305-1.871,14.174h-0.803
		c-0.455,0.014-0.898,0.075-1.34,0.165C187.443,503.946,184.714,502.517,184.708,498.688 M197.462,587.403
		c-1.107,0-2.012-0.903-2.012-2.065l-0.711-15.799h5.452l-0.725,15.84C199.466,586.5,198.558,587.403,197.462,587.403
		 M204.93,564.263c0,1.513-1.231,2.74-2.735,2.74l-9.24,0.014l-0.014,1.255v-1.255c-1.511,0-2.715-1.229-2.715-2.747
		c0-1.505,1.224-2.732,2.715-2.732l5.226-0.014h4.01C203.685,561.523,204.93,562.758,204.93,564.263 M200.673,559.001l-6.433,0.013
		l-1.72-37.407l9.688-0.014c0.066,0,0.124-0.034,0.206-0.048L200.673,559.001z M204.646,518.157
		c-0.603,0.602-1.429,0.898-2.438,0.898l-9.688,0.014c-1.624,0-2.749-1.193-3.177-3.186c0.063,0,0.117,0.014,0.165,0.014
		l15.877-0.027c0.088,0,0.173-0.046,0.263-0.046C205.459,516.796,205.176,517.625,204.646,518.157 M207.774,512.355
		c-0.635,0.649-1.478,0.999-2.389,0.999l-15.877,0.027c-1.873,0-3.371-1.519-3.384-3.386c0-1.85,1.511-3.367,3.377-3.367
		l2.577-0.014c0,0.014,0.021,0.027,0.021,0.041l0.036-0.041h3.404l9.86-0.014c1.846,0,3.363,1.519,3.363,3.381
		C208.762,510.872,208.417,511.723,207.774,512.355"/>
	<path fill="#1D1D1B" d="M110.457,505.809c2.833-1.74,5.832-5.134,4.347-10.277c-0.05-0.064-3.616-6.946-1.872-12.444l0.593-1.866
		l-1.942,0.229c-0.297,0.027-2.901,0.469-5.933,3.863c-3-4.844-7.833-7.822-8.123-7.994l-4.77-2.81l3.09,4.593
		c0.587,0.898,2.01,3.613,1.38,5.367c-0.337,0.969-0.759,1.715-1.248,2.399c-3.185-3.234-8.056-4.561-8.278-4.608l-2.499-0.664
		l1.029,2.374c1.403,3.216,0.296,5.466-0.982,8.07c-0.937,1.922-2.003,4.097-2.003,6.776c0,3.73,1.873,5.846,3.394,6.964
		c-0.078,0.075-0.179,0.105-0.256,0.181c-1.114,1.118-1.721,2.603-1.714,4.168c0,2.226,1.251,4.149,3.09,5.155
		c0.26,2.684,1.463,4.762,3.258,5.761l1.778,38.347c-2.301,0.554-4.041,2.537-4.041,5.013c0,2.639,1.973,4.715,4.496,5.094
		l0.739,16.016c0,2.489,2.037,4.527,4.53,4.527c2.489,0,4.526-2.038,4.526-4.488l0.739-16.008c1.194-0.129,2.308-0.573,3.164-1.444
		c1.002-1.006,1.548-2.321,1.535-3.71c0-2.53-1.845-4.561-4.25-5.053l1.761-38.266c0.559-0.257,1.099-0.554,1.528-0.979
		c1.12-1.113,1.713-2.786,1.852-4.905c1.761-1.025,2.972-2.913,2.972-5.087C112.346,508.406,111.597,506.889,110.457,505.809
		 M107.114,487.456c1.079-1.316,2.101-2.143,2.901-2.662c-0.627,5.819,2.385,11.607,2.446,11.675
		c1.437,4.988-3.481,7.401-4.675,7.896c-0.442-0.098-0.891-0.159-1.356-0.159h-2.56c1.865-2.425,4.199-6.425,4.142-11.398
		C108.004,490.688,107.114,487.456,107.114,487.456 M99.612,485.313c0.36-1.015,0.36-2.095,0.179-3.124
		c2.597,2.369,5.681,6.105,5.714,10.632c0.04,5.583-3.516,9.886-4.958,11.384h-0.887c-1.116-1.526-3.296-5.009-0.995-8.885
		c0.458-0.784,2.549-4,2.819-4.62c0.318-0.752,0.284-1.438,0.284-1.438c-0.344,0.567-0.947,1.233-0.947,1.233
		c-0.615,0.66-2.651,2.776-3.286,3.572c-3.408,4.114-1.114,8.612-0.25,10.138l-2.938,0.014c-5.049-6.776,0.348-12.116,0.678-12.427
		c0.368-0.428,0.739-0.822,1.073-1.18C97.527,489.064,98.748,487.738,99.612,485.313 M85.761,498.817
		c0-2.085,0.858-3.832,1.762-5.664c1.079-2.196,2.273-4.622,1.774-7.675c1.548,0.649,3.571,1.741,5.043,3.309
		c-0.034,0.027-0.055,0.068-0.094,0.112c-0.348,0.384-0.726,0.786-1.036,1.153c-0.078,0.068-6.466,6.284-1.883,14.167h-0.785
		c-0.415,0-0.786,0.159-1.188,0.249C89.063,504.352,85.768,503.039,85.761,498.817 M98.519,587.512c-1.11,0-2.024-0.898-2.024-2.051
		l-0.726-15.801l5.479-0.014l-0.739,15.868C100.509,586.613,99.618,587.512,98.519,587.512 M105.974,564.392
		c0,0.722-0.284,1.416-0.8,1.936c-0.52,0.513-1.21,0.796-1.942,0.796h-9.216l-0.013,1.269v-1.269c-1.504,0-2.735-1.214-2.735-2.718
		c0-1.505,1.231-2.746,2.735-2.746h5.222l3.994-0.014C104.746,561.646,105.974,562.887,105.974,564.392 M101.733,559.13
		l-6.432,0.014l-1.727-37.424h0.014l9.664-0.014c0.078,0,0.125-0.027,0.203-0.027L101.733,559.13z M105.734,518.313
		c-0.574,0.574-1.403,0.87-2.49,0.87l-9.657,0.013c-1.596,0-2.743-1.214-3.185-3.189c0.071,0,0.111,0.02,0.165,0.02l15.861-0.02
		c0.099,0,0.189-0.027,0.277-0.027C106.527,516.95,106.25,517.794,105.734,518.313 M106.429,513.47l-15.861,0.027
		c-1.872,0-3.376-1.505-3.376-3.367c0-0.903,0.344-1.75,0.981-2.387c0.634-0.649,1.485-1.001,2.375-1.001h2.583
		c0,0,0.014,0.014,0.014,0.027l0.034-0.027h3.42l4.989-0.012h4.857c1.855,0,3.363,1.505,3.377,3.372
		C109.823,511.966,108.301,513.47,106.429,513.47"/>
	<path fill="#1D1D1B" d="M163.922,509.651c2.598-2.027,6.369-6.379,4.271-13.61c-0.021-0.078-2.931-7.305-0.394-15.241l0.579-1.866
		l-1.946,0.229c-0.149,0.014-3.525,0.523-7.498,4.717c-3.818-7.999-12.04-12.953-12.488-13.223l-4.174-2.472l2.453,4.199
		c0.027,0.038,2.736,4.756,1.596,7.989c-0.506,1.416-1.127,2.509-1.839,3.508c-4.345-4.628-10.969-6.225-11.253-6.292l-2.439-0.565
		l1.009,2.301c2.051,4.719,0.456,7.943-1.376,11.702c-1.352,2.769-2.762,5.635-2.755,9.262c0.007,5.002,2.675,8.119,5.029,9.695
		c-1.845,1.423-3.053,3.628-3.053,6.119c0.014,3.048,1.795,5.646,4.345,6.914c0.422,2.881,2.148,5.828,4.581,7.232l-0.084,0.014
		l2.537,54.997c-3.204,0.579-5.657,3.365-5.657,6.732c0.007,3.568,2.776,6.49,6.265,6.786l1.059,22.736
		c0,1.551,0.607,3.016,1.697,4.114c1.106,1.094,2.564,1.715,4.105,1.715h0.027c1.555,0,3.013-0.621,4.111-1.729
		c1.097-1.092,1.715-2.563,1.698-4.062l1.053-22.748c3.645-0.148,6.581-3.143,6.581-6.841c-0.007-3.468-2.611-6.301-5.948-6.753
		l2.53-55.152h-0.007c2.465-1.512,4.267-4.411,4.649-7.178c0.677-0.338,1.319-0.789,1.885-1.343c1.465-1.471,2.273-3.42,2.26-5.478
		C167.328,513.395,165.973,511.033,163.922,509.651 M164.759,482.422c-1.647,7.824,0.988,14.266,1.061,14.447
		c2.082,7.186-3.053,10.714-4.64,11.612c-0.503-0.102-1.049-0.167-1.596-0.167l-5.05,0.014c2.63-3.184,6.396-9.012,6.335-16.447
		c-0.014-1.905-0.361-3.703-0.905-5.404C161.807,484.308,163.52,483.087,164.759,482.422 M148.688,481.222
		c0.691-1.929,0.441-4.068-0.054-5.9c3.896,3.165,9.678,9.118,9.719,16.573c0.078,8.188-5.25,14.431-7.206,16.434h-0.627
		c-1.035-1.575-2.169-4.095-2.169-6.975c-0.006-5.535,2.689-8.754,2.689-8.754s-3.415,2.308-4.001,7.398
		c-0.284,2.444,0.256,5.016,1.845,8.338h-3.241c-1.228-1.814-4.567-7.066-1.077-12.946c0.648-1.088,4.136-5.586,4.524-6.455
		c0.448-1.039,0.415-2.011,0.415-2.011c-0.493,0.805-1.339,1.741-1.339,1.741c-0.836,0.917-3.704,3.895-4.608,4.971
		c-5.174,6.288-0.914,13.196-0.03,14.7h-1.96c-7.593-9.92,0.371-17.78,0.813-18.201c0.513-0.587,1.002-1.121,1.474-1.646
		C145.815,486.376,147.501,484.544,148.688,481.222 M130.19,500.273c-0.007-3.025,1.207-5.511,2.493-8.143
		c1.649-3.367,3.35-6.834,2.246-11.364c2.224,0.813,5.573,2.394,7.951,5.063c-0.283,0.311-0.567,0.628-0.87,0.961
		c-0.486,0.516-1.002,1.077-1.444,1.596c-0.104,0.088-9.183,8.926-2.088,19.948h-1.096c-0.671,0-1.292,0.126-1.923,0.277
		C134.885,508.406,130.204,506.396,130.19,500.273 M151.806,621.5c0,0.876-0.338,1.707-0.961,2.347
		c-0.621,0.621-1.444,0.952-2.328,0.952h-0.014c-0.884,0-1.706-0.331-2.327-0.952c-0.631-0.606-0.976-1.443-0.976-2.394
		l-1.048-22.607l8.696-0.014L151.806,621.5z M159.439,591.964c0,2.396-1.951,4.331-4.324,4.331l-12.886,0.021
		c-2.388,0-4.338-1.942-4.345-4.324c0-2.39,1.943-4.332,4.318-4.332l9.728-0.014h3.165
		C157.475,587.646,159.426,589.576,159.439,591.964 M153.492,585.123l-9.964,0.007l-2.48-54.099c0.186,0.027,0.368,0.08,0.561,0.08
		h0.014l13.532-0.014c0.283,0,0.56-0.08,0.83-0.114L153.492,585.123z M155.154,528.574l-13.532,0.014h-0.014
		c-2.156,0-4.119-2.335-4.872-4.804c0.223,0.014,0.442,0.062,0.665,0.062l22.196-0.034c0.277,0,0.546-0.054,0.816-0.081
		C159.611,526.146,157.416,528.574,155.154,528.574 M163.287,519.757c-0.988,0.985-2.301,1.532-3.689,1.532l-22.196,0.026
		c-2.88,0-5.222-2.334-5.239-5.214c0-2.882,2.345-5.229,5.225-5.229c0,0,14.781,0,14.818-0.021h7.391
		c2.875,0,5.208,2.321,5.208,5.209C164.805,517.463,164.275,518.766,163.287,519.757"/>
</g>
</svg>
